<svg xmlns="http://www.w3.org/2000/svg" xmlns:xlink="http://www.w3.org/1999/xlink" width="500" zoomAndPan="magnify" viewBox="0 0 375 374.999991" height="500" preserveAspectRatio="xMidYMid meet" version="1.0"><defs><clipPath id="52096c805c"><path d="M 125.234375 218.167969 L 250 218.167969 L 250 267.511719 L 125.234375 267.511719 Z M 125.234375 218.167969 " clip-rule="nonzero"/></clipPath><clipPath id="d369547590"><path d="M 251 205 L 319 205 L 319 327.828125 L 251 327.828125 Z M 251 205 " clip-rule="nonzero"/></clipPath><clipPath id="5c33dbd908"><path d="M 55 205 L 124 205 L 124 327.828125 L 55 327.828125 Z M 55 205 " clip-rule="nonzero"/></clipPath><clipPath id="39d1219eba"><path d="M 217 189 L 301 189 L 301 327.828125 L 217 327.828125 Z M 217 189 " clip-rule="nonzero"/></clipPath><clipPath id="e7742e0534"><path d="M 54 37.5 L 321 37.5 L 321 139 L 54 139 Z M 54 37.5 " clip-rule="nonzero"/></clipPath><clipPath id="e768d9faed"><path d="M 74 189 L 158 189 L 158 327.828125 L 74 327.828125 Z M 74 189 " clip-rule="nonzero"/></clipPath></defs><g clip-path="url(#52096c805c)"><path fill="#f8c361" d="M 176.394531 267.027344 C 172.03125 267.027344 170.675781 259.78125 168.480469 245.894531 C 167.675781 240.757812 166.511719 233.433594 165.332031 230.355469 C 164.605469 232.480469 163.882812 236.496094 163.363281 239.378906 C 161.628906 249.023438 159.988281 258.140625 154.183594 258.140625 C 149.464844 258.140625 148.320312 251.878906 147.210938 245.832031 C 146.769531 243.4375 146.066406 239.601562 145.277344 238.371094 C 144.460938 239.5 143.617188 243.03125 143.097656 245.234375 C 141.789062 250.734375 140.546875 255.921875 136.417969 255.921875 C 132.402344 255.921875 131.066406 252.503906 130.179688 250.230469 C 129.199219 247.714844 128.757812 247.039062 127.535156 247.039062 C 126.3125 247.039062 125.3125 246.039062 125.3125 244.816406 C 125.3125 243.59375 126.3125 242.597656 127.535156 242.597656 C 131.96875 242.597656 133.382812 246.222656 134.320312 248.625 C 135.246094 251.003906 135.601562 251.480469 136.417969 251.480469 C 137.171875 250.933594 138.214844 246.550781 138.777344 244.199219 C 140.0625 238.804688 141.277344 233.710938 145.300781 233.710938 C 149.5 233.710938 150.507812 239.203125 151.574219 245.023438 C 152.058594 247.671875 153.074219 253.179688 154.210938 253.710938 C 156.277344 253.699219 158.253906 242.726562 158.992188 238.597656 C 160.484375 230.304688 161.472656 224.828125 165.289062 224.828125 C 169.472656 224.828125 170.695312 231.441406 172.871094 245.199219 C 173.765625 250.828125 175.207031 259.992188 176.644531 262.339844 C 177.757812 260.9375 179.222656 254.984375 180.039062 251.679688 C 181.902344 244.121094 183.378906 238.15625 187.5 238.15625 C 191.542969 238.15625 192.757812 242.570312 193.726562 246.117188 C 194.328125 248.269531 195.125 251.183594 196.21875 251.453125 C 197.824219 250.039062 199.289062 241.171875 200.171875 235.828125 C 201.925781 225.191406 203.089844 218.167969 207.488281 218.167969 C 211.910156 218.167969 213.066406 225.011719 214.871094 238.128906 C 215.703125 244.183594 217.082031 254.210938 218.773438 255.886719 C 219.960938 255.425781 221.515625 250.664062 222.269531 248.3125 C 223.890625 243.316406 225.566406 238.15625 229.695312 238.15625 C 232.964844 238.15625 234.300781 241.851562 235.726562 245.761719 C 236.367188 247.523438 237.695312 251.203125 238.597656 251.480469 C 239.785156 251.480469 241.164062 249.101562 242.179688 247.367188 C 243.550781 245.023438 244.957031 242.597656 247.464844 242.597656 C 248.6875 242.597656 249.683594 243.59375 249.683594 244.816406 C 249.683594 245.953125 248.832031 246.882812 247.742188 247.019531 C 247.296875 247.402344 246.535156 248.710938 246.015625 249.605469 C 244.46875 252.269531 242.335938 255.921875 238.578125 255.921875 C 234.683594 255.921875 233.019531 251.324219 231.550781 247.273438 C 231.015625 245.816406 230.164062 243.445312 229.523438 242.683594 C 228.523438 243.410156 227.171875 247.609375 226.496094 249.683594 C 224.792969 254.933594 223.042969 260.363281 218.589844 260.363281 C 213.679688 260.363281 212.363281 252.546875 210.460938 238.734375 C 209.742188 233.496094 208.703125 225.914062 207.476562 223.25 C 206.351562 225.652344 205.292969 232.089844 204.554688 236.550781 C 202.765625 247.375 201.351562 255.921875 196.382812 255.921875 C 191.820312 255.921875 190.5 251.140625 189.449219 247.289062 C 189.121094 246.117188 188.304688 243.160156 187.671875 242.664062 C 186.535156 243.898438 185.183594 249.398438 184.347656 252.746094 C 182.457031 260.40625 180.828125 267.027344 176.394531 267.027344 " fill-opacity="1" fill-rule="nonzero"/></g><path fill="#23405e" d="M 68.621094 143.390625 L 52.679688 136.472656 C 50.871094 141.347656 49.25 146.316406 47.828125 151.378906 L 63.382812 157.128906 C 64.96875 152.433594 66.714844 147.851562 68.621094 143.390625 Z M 68.621094 143.390625 " fill-opacity="1" fill-rule="nonzero"/><path fill="#23405e" d="M 66.867188 284.289062 C 67.199219 284.289062 67.523438 284.234375 67.847656 284.195312 L 61.414062 268.695312 C 59.359375 270.328125 58.113281 272.820312 58.113281 275.539062 C 58.113281 280.363281 62.039062 284.289062 66.867188 284.289062 Z M 66.867188 284.289062 " fill-opacity="1" fill-rule="nonzero"/><path fill="#23405e" d="M 66.867188 289.117188 C 59.378906 289.117188 53.285156 283.027344 53.285156 275.539062 C 53.285156 270.855469 55.679688 266.609375 59.519531 264.136719 L 56.515625 256.914062 C 49.785156 260.648438 45.523438 267.699219 45.523438 275.539062 C 45.523438 287.304688 55.097656 296.878906 66.863281 296.878906 C 68.886719 296.878906 70.859375 296.589844 72.765625 296.039062 L 69.753906 288.789062 C 68.8125 288.992188 67.851562 289.117188 66.867188 289.117188 Z M 66.867188 289.117188 " fill-opacity="1" fill-rule="nonzero"/><path fill="#23405e" d="M 54.648438 252.40625 L 52.964844 248.355469 C 50.507812 242.433594 50.289062 235.835938 52.3125 229.722656 C 52.042969 205.699219 55.371094 182.671875 61.875 161.71875 L 46.574219 156.058594 C 38.269531 188.699219 37.960938 224.613281 46.414062 259.210938 C 48.625 256.4375 51.40625 254.113281 54.648438 252.40625 Z M 54.648438 252.40625 " fill-opacity="1" fill-rule="nonzero"/><path fill="#23405e" d="M 322.425781 229.726562 C 324.445312 235.835938 324.230469 242.429688 321.773438 248.355469 L 320.089844 252.40625 C 323.328125 254.113281 326.113281 256.441406 328.328125 259.210938 C 336.78125 224.613281 336.46875 188.699219 328.167969 156.058594 L 312.863281 161.71875 C 319.367188 182.671875 322.695312 205.699219 322.425781 229.726562 Z M 322.425781 229.726562 " fill-opacity="1" fill-rule="nonzero"/><path fill="#23405e" d="M 311.355469 157.132812 L 326.90625 151.382812 C 325.484375 146.320312 323.863281 141.347656 322.054688 136.476562 L 306.113281 143.394531 C 308.023438 147.851562 309.769531 152.433594 311.355469 157.132812 Z M 311.355469 157.132812 " fill-opacity="1" fill-rule="nonzero"/><g clip-path="url(#d369547590)"><path fill="#23405e" d="M 309.921875 264.292969 C 309.921875 264.292969 309.925781 264.292969 309.925781 264.289062 L 314.753906 252.667969 L 317.3125 246.503906 C 319.375 241.539062 319.527344 235.992188 317.738281 230.878906 C 314.617188 221.949219 310.042969 213.558594 303.933594 205.460938 L 251.640625 327.074219 C 262.363281 325.957031 272.027344 323.449219 280.902344 319.441406 C 285.761719 317.246094 289.609375 313.214844 291.734375 308.09375 L 309.921875 264.300781 C 309.921875 264.296875 309.921875 264.296875 309.921875 264.292969 Z M 309.921875 264.292969 " fill-opacity="1" fill-rule="nonzero"/></g><g clip-path="url(#5c33dbd908)"><path fill="#23405e" d="M 56.996094 230.878906 C 55.210938 235.988281 55.359375 241.535156 57.421875 246.5 L 59.980469 252.667969 L 64.808594 264.289062 C 64.808594 264.289062 64.8125 264.289062 64.8125 264.292969 C 64.8125 264.292969 64.8125 264.292969 64.8125 264.296875 L 83 308.089844 C 85.125 313.210938 88.972656 317.238281 93.835938 319.4375 C 102.707031 323.445312 112.371094 325.953125 123.09375 327.070312 L 70.800781 205.457031 C 64.691406 213.558594 60.121094 221.945312 56.996094 230.878906 Z M 56.996094 230.878906 " fill-opacity="1" fill-rule="nonzero"/></g><path fill="#23405e" d="M 313.324219 268.695312 L 306.886719 284.195312 C 307.210938 284.230469 307.535156 284.289062 307.867188 284.289062 C 312.695312 284.289062 316.625 280.363281 316.625 275.539062 C 316.625 272.820312 315.375 270.328125 313.324219 268.695312 Z M 313.324219 268.695312 " fill-opacity="1" fill-rule="nonzero"/><path fill="#23405e" d="M 318.214844 256.914062 L 315.214844 264.136719 C 319.054688 266.609375 321.445312 270.855469 321.445312 275.539062 C 321.445312 283.027344 315.355469 289.117188 307.867188 289.117188 C 306.882812 289.117188 305.917969 288.992188 304.976562 288.789062 L 301.960938 296.039062 C 303.867188 296.585938 305.839844 296.878906 307.867188 296.878906 C 319.632812 296.878906 329.207031 287.304688 329.207031 275.539062 C 329.210938 267.699219 324.953125 260.648438 318.214844 256.914062 Z M 318.214844 256.914062 " fill-opacity="1" fill-rule="nonzero"/><g clip-path="url(#39d1219eba)"><path fill="#23405e" d="M 295.800781 195.78125 C 291.902344 191.617188 286.699219 189.375 281.152344 189.375 C 280.015625 189.375 278.863281 189.46875 277.707031 189.660156 C 270.957031 190.777344 265.25 195.15625 262.441406 201.378906 L 219.171875 297.136719 C 216.113281 303.90625 216.707031 311.675781 220.753906 317.925781 C 224.742188 324.085938 231.476562 327.757812 238.773438 327.757812 C 238.800781 327.757812 238.824219 327.757812 238.847656 327.757812 C 241.359375 327.746094 243.796875 327.648438 246.199219 327.511719 L 300.527344 201.164062 C 299.027344 199.359375 297.46875 197.566406 295.800781 195.78125 Z M 295.800781 195.78125 " fill-opacity="1" fill-rule="nonzero"/></g><g clip-path="url(#e7742e0534)"><path fill="#23405e" d="M 304.167969 138.976562 L 320.3125 131.964844 C 314.523438 117.519531 307.019531 104.054688 297.855469 92.066406 C 270.570312 56.367188 232.363281 37.5 187.367188 37.5 C 142.371094 37.5 104.167969 56.367188 76.878906 92.066406 C 67.714844 104.058594 60.214844 117.523438 54.421875 131.964844 L 70.570312 138.976562 C 78.28125 122.226562 88.273438 107.351562 100.34375 95.128906 C 124.144531 71.019531 154.238281 58.277344 187.367188 58.277344 C 220.496094 58.277344 250.589844 71.019531 274.390625 95.128906 C 286.464844 107.351562 296.457031 122.226562 304.167969 138.976562 Z M 304.167969 138.976562 " fill-opacity="1" fill-rule="nonzero"/></g><g clip-path="url(#e768d9faed)"><path fill="#23405e" d="M 112.296875 201.382812 C 109.484375 195.160156 103.78125 190.777344 97.03125 189.664062 C 90.234375 188.527344 83.632812 190.765625 78.933594 195.785156 C 77.269531 197.566406 75.710938 199.363281 74.210938 201.164062 L 128.539062 327.511719 C 130.941406 327.648438 133.378906 327.75 135.890625 327.757812 C 135.917969 327.757812 135.941406 327.757812 135.964844 327.757812 C 143.261719 327.757812 149.992188 324.089844 153.984375 317.925781 C 158.03125 311.679688 158.625 303.90625 155.566406 297.136719 Z M 112.296875 201.382812 " fill-opacity="1" fill-rule="nonzero"/></g></svg>