<svg xmlns="http://www.w3.org/2000/svg" xmlns:xlink="http://www.w3.org/1999/xlink" width="500" zoomAndPan="magnify" viewBox="0 0 375 374.999991" height="500" preserveAspectRatio="xMidYMid meet" version="1.0"><defs><g/><clipPath id="d351d96b32"><path d="M 146.804688 165.691406 L 228.554688 165.691406 L 228.554688 197.941406 L 146.804688 197.941406 Z M 146.804688 165.691406 " clip-rule="nonzero"/></clipPath><clipPath id="f603846270"><path d="M 206 146 L 262 146 L 262 237.363281 L 206 237.363281 Z M 206 146 " clip-rule="nonzero"/></clipPath><clipPath id="0ec3fd67a9"><path d="M 100 47.613281 L 275 47.613281 L 275 114 L 100 114 Z M 100 47.613281 " clip-rule="nonzero"/></clipPath><clipPath id="ca9217e638"><path d="M 113 146 L 168 146 L 168 237.363281 L 113 237.363281 Z M 113 146 " clip-rule="nonzero"/></clipPath></defs><g clip-path="url(#d351d96b32)"><path fill="#f8c361" d="M 180.242188 197.625 C 177.390625 197.625 176.503906 192.890625 175.070312 183.8125 C 174.542969 180.457031 173.785156 175.671875 173.011719 173.660156 C 172.535156 175.046875 172.066406 177.671875 171.726562 179.554688 C 170.589844 185.859375 169.519531 191.820312 165.726562 191.820312 C 162.640625 191.820312 161.894531 187.726562 161.167969 183.773438 C 160.878906 182.210938 160.417969 179.703125 159.902344 178.898438 C 159.371094 179.636719 158.820312 181.941406 158.480469 183.382812 C 157.625 186.976562 156.8125 190.367188 154.113281 190.367188 C 151.488281 190.367188 150.617188 188.136719 150.039062 186.648438 C 149.398438 185.003906 149.105469 184.5625 148.308594 184.5625 C 147.507812 184.5625 146.855469 183.910156 146.855469 183.109375 C 146.855469 182.3125 147.507812 181.660156 148.308594 181.660156 C 151.207031 181.660156 152.128906 184.03125 152.742188 185.601562 C 153.347656 187.152344 153.582031 187.464844 154.113281 187.464844 C 154.605469 187.109375 155.289062 184.246094 155.65625 182.707031 C 156.496094 179.183594 157.289062 175.855469 159.921875 175.855469 C 162.664062 175.855469 163.320312 179.441406 164.019531 183.246094 C 164.335938 184.976562 165 188.578125 165.742188 188.921875 C 167.09375 188.917969 168.386719 181.746094 168.867188 179.046875 C 169.84375 173.625 170.488281 170.046875 172.984375 170.046875 C 175.71875 170.046875 176.515625 174.367188 177.941406 183.359375 C 178.523438 187.039062 179.464844 193.027344 180.40625 194.566406 C 181.132812 193.644531 182.089844 189.757812 182.621094 187.597656 C 183.84375 182.65625 184.804688 178.757812 187.5 178.757812 C 190.140625 178.757812 190.933594 181.644531 191.570312 183.960938 C 191.960938 185.367188 192.484375 187.273438 193.199219 187.449219 C 194.246094 186.523438 195.203125 180.730469 195.78125 177.238281 C 196.929688 170.285156 197.6875 165.691406 200.5625 165.691406 C 203.453125 165.691406 204.207031 170.167969 205.386719 178.738281 C 205.933594 182.699219 206.832031 189.25 207.941406 190.347656 C 208.714844 190.046875 209.730469 186.933594 210.222656 185.394531 C 211.285156 182.128906 212.378906 178.757812 215.078125 178.757812 C 217.214844 178.757812 218.089844 181.171875 219.019531 183.730469 C 219.4375 184.878906 220.304688 187.285156 220.894531 187.464844 C 221.671875 187.464844 222.574219 185.914062 223.238281 184.777344 C 224.132812 183.246094 225.050781 181.660156 226.691406 181.660156 C 227.488281 181.660156 228.140625 182.3125 228.140625 183.109375 C 228.140625 183.855469 227.585938 184.460938 226.871094 184.550781 C 226.582031 184.800781 226.082031 185.65625 225.742188 186.242188 C 224.734375 187.980469 223.339844 190.367188 220.882812 190.367188 C 218.339844 190.367188 217.25 187.363281 216.292969 184.714844 C 215.941406 183.761719 215.382812 182.214844 214.964844 181.714844 C 214.3125 182.191406 213.429688 184.9375 212.984375 186.292969 C 211.875 189.722656 210.730469 193.273438 207.820312 193.273438 C 204.609375 193.273438 203.75 188.164062 202.507812 179.136719 C 202.035156 175.710938 201.355469 170.757812 200.558594 169.015625 C 199.820312 170.585938 199.128906 174.792969 198.644531 177.707031 C 197.476562 184.785156 196.554688 190.367188 193.304688 190.367188 C 190.324219 190.367188 189.460938 187.246094 188.773438 184.726562 C 188.558594 183.960938 188.027344 182.027344 187.613281 181.707031 C 186.871094 182.511719 185.984375 186.105469 185.441406 188.292969 C 184.203125 193.300781 183.140625 197.625 180.242188 197.625 " fill-opacity="1" fill-rule="nonzero"/></g><path fill="#dee2e6" d="M 109.804688 116.824219 L 99.386719 112.300781 C 98.203125 115.484375 97.144531 118.734375 96.214844 122.042969 L 106.378906 125.800781 C 107.417969 122.730469 108.558594 119.734375 109.804688 116.824219 Z M 109.804688 116.824219 " fill-opacity="1" fill-rule="nonzero"/><path fill="#dee2e6" d="M 108.65625 208.910156 C 108.875 208.910156 109.085938 208.871094 109.300781 208.847656 L 105.09375 198.71875 C 103.75 199.785156 102.933594 201.414062 102.933594 203.191406 C 102.933594 206.34375 105.503906 208.910156 108.65625 208.910156 Z M 108.65625 208.910156 " fill-opacity="1" fill-rule="nonzero"/><path fill="#dee2e6" d="M 108.65625 212.0625 C 103.761719 212.0625 99.78125 208.082031 99.78125 203.191406 C 99.78125 200.128906 101.347656 197.355469 103.855469 195.738281 L 101.894531 191.019531 C 97.492188 193.457031 94.707031 198.066406 94.707031 203.191406 C 94.707031 210.882812 100.964844 217.136719 108.65625 217.136719 C 109.976562 217.136719 111.265625 216.949219 112.511719 216.589844 L 110.542969 211.847656 C 109.929688 211.984375 109.300781 212.0625 108.65625 212.0625 Z M 108.65625 212.0625 " fill-opacity="1" fill-rule="nonzero"/><path fill="#dee2e6" d="M 100.671875 188.070312 L 99.570312 185.421875 C 97.964844 181.550781 97.824219 177.242188 99.144531 173.246094 C 98.96875 157.546875 101.144531 142.496094 105.394531 128.800781 L 95.394531 125.101562 C 89.96875 146.433594 89.765625 169.90625 95.289062 192.519531 C 96.734375 190.707031 98.554688 189.1875 100.671875 188.070312 Z M 100.671875 188.070312 " fill-opacity="1" fill-rule="nonzero"/><path fill="#dee2e6" d="M 275.683594 173.246094 C 277.003906 177.242188 276.863281 181.550781 275.257812 185.421875 L 274.15625 188.070312 C 276.273438 189.1875 278.09375 190.707031 279.539062 192.519531 C 285.066406 169.90625 284.863281 146.433594 279.4375 125.101562 L 269.433594 128.800781 C 273.683594 142.496094 275.859375 157.546875 275.683594 173.246094 Z M 275.683594 173.246094 " fill-opacity="1" fill-rule="nonzero"/><path fill="#dee2e6" d="M 268.449219 125.800781 L 278.613281 122.042969 C 277.683594 118.738281 276.625 115.488281 275.441406 112.300781 L 265.023438 116.824219 C 266.273438 119.734375 267.410156 122.730469 268.449219 125.800781 Z M 268.449219 125.800781 " fill-opacity="1" fill-rule="nonzero"/><path fill="#dee2e6" d="M 267.511719 195.839844 C 267.511719 195.839844 267.515625 195.839844 267.515625 195.839844 L 270.667969 188.242188 L 272.34375 184.214844 C 273.6875 180.96875 273.789062 177.34375 272.621094 174.003906 C 270.578125 168.164062 267.589844 162.679688 263.597656 157.390625 L 229.421875 236.875 C 236.429688 236.144531 242.746094 234.503906 248.546875 231.882812 C 251.722656 230.449219 254.234375 227.816406 255.625 224.46875 L 267.511719 195.847656 C 267.511719 195.84375 267.511719 195.84375 267.511719 195.839844 Z M 267.511719 195.839844 " fill-opacity="1" fill-rule="nonzero"/><path fill="#dee2e6" d="M 102.207031 174 C 101.039062 177.339844 101.136719 180.96875 102.484375 184.210938 L 104.15625 188.242188 L 107.3125 195.835938 C 107.3125 195.839844 107.3125 195.839844 107.3125 195.839844 C 107.3125 195.839844 107.3125 195.839844 107.3125 195.84375 L 119.203125 224.464844 C 120.589844 227.8125 123.105469 230.445312 126.285156 231.882812 C 132.082031 234.5 138.394531 236.140625 145.40625 236.871094 L 111.226562 157.386719 C 107.234375 162.679688 104.246094 168.164062 102.207031 174 Z M 102.207031 174 " fill-opacity="1" fill-rule="nonzero"/><path fill="#dee2e6" d="M 269.734375 198.71875 L 265.527344 208.847656 C 265.742188 208.871094 265.953125 208.910156 266.167969 208.910156 C 269.324219 208.910156 271.890625 206.34375 271.890625 203.191406 C 271.890625 201.414062 271.078125 199.785156 269.734375 198.71875 Z M 269.734375 198.71875 " fill-opacity="1" fill-rule="nonzero"/><path fill="#dee2e6" d="M 272.933594 191.019531 L 270.96875 195.738281 C 273.480469 197.355469 275.042969 200.128906 275.042969 203.191406 C 275.042969 208.082031 271.0625 212.0625 266.167969 212.0625 C 265.523438 212.0625 264.894531 211.984375 264.277344 211.847656 L 262.308594 216.589844 C 263.554688 216.945312 264.84375 217.136719 266.167969 217.136719 C 273.859375 217.136719 280.117188 210.882812 280.117188 203.191406 C 280.117188 198.066406 277.335938 193.457031 272.933594 191.019531 Z M 272.933594 191.019531 " fill-opacity="1" fill-rule="nonzero"/><g clip-path="url(#f603846270)"><path fill="#dee2e6" d="M 258.285156 151.0625 C 255.734375 148.339844 252.335938 146.875 248.710938 146.875 C 247.964844 146.875 247.210938 146.9375 246.457031 147.0625 C 242.046875 147.792969 238.316406 150.65625 236.480469 154.722656 L 208.199219 217.304688 C 206.203125 221.730469 206.589844 226.808594 209.234375 230.894531 C 211.839844 234.917969 216.242188 237.316406 221.011719 237.316406 C 221.027344 237.316406 221.042969 237.316406 221.058594 237.316406 C 222.699219 237.3125 224.292969 237.25 225.863281 237.15625 L 261.371094 154.582031 C 260.390625 153.402344 259.375 152.226562 258.285156 151.0625 Z M 258.285156 151.0625 " fill-opacity="1" fill-rule="nonzero"/></g><g clip-path="url(#0ec3fd67a9)"><path fill="#dee2e6" d="M 263.75 113.9375 L 274.304688 109.355469 C 270.519531 99.914062 265.617188 91.113281 259.625 83.277344 C 241.792969 59.945312 216.820312 47.613281 187.414062 47.613281 C 158.003906 47.613281 133.035156 59.945312 115.203125 83.277344 C 109.210938 91.113281 104.308594 99.914062 100.523438 109.355469 L 111.078125 113.9375 C 116.117188 102.988281 122.648438 93.269531 130.539062 85.277344 C 146.09375 69.523438 165.761719 61.195312 187.414062 61.195312 C 209.066406 61.195312 228.734375 69.523438 244.289062 85.277344 C 252.179688 93.269531 258.710938 102.988281 263.75 113.9375 Z M 263.75 113.9375 " fill-opacity="1" fill-rule="nonzero"/></g><g clip-path="url(#ca9217e638)"><path fill="#dee2e6" d="M 138.347656 154.722656 C 136.511719 150.65625 132.78125 147.792969 128.371094 147.0625 C 123.929688 146.320312 119.613281 147.785156 116.542969 151.066406 C 115.457031 152.226562 114.4375 153.402344 113.457031 154.582031 L 148.964844 237.15625 C 150.535156 237.25 152.128906 237.3125 153.769531 237.320312 C 153.785156 237.320312 153.800781 237.320312 153.816406 237.320312 C 158.585938 237.320312 162.984375 234.921875 165.59375 230.894531 C 168.242188 226.808594 168.628906 221.730469 166.628906 217.308594 Z M 138.347656 154.722656 " fill-opacity="1" fill-rule="nonzero"/></g><g fill="#dee2e6" fill-opacity="1"><g transform="translate(67.430057, 312.401082)"><g><path d="M 1.765625 0 L 44.410156 0 C 43.058594 -6.117188 42.410156 -10.941406 42 -18 C 38.644531 -6.941406 28.761719 -1.765625 18.058594 -1.765625 C 16.527344 -9.410156 15.765625 -17.765625 15.765625 -24.410156 C 15.765625 -24.941406 16.117188 -25.292969 16.707031 -25.292969 L 21.058594 -25.292969 C 26.351562 -25.292969 30.410156 -23.585938 34.941406 -17.117188 C 34.410156 -24.234375 34.410156 -28.175781 34.941406 -35.234375 C 30.292969 -28.644531 26.410156 -27.058594 21.058594 -27.058594 L 16.707031 -27.058594 C 16.175781 -27.058594 15.824219 -27.46875 15.824219 -28 C 16 -37.175781 16.765625 -44.175781 18.058594 -50.585938 C 28.820312 -50.585938 38.644531 -45.46875 42 -34.351562 C 42.410156 -41.410156 43.058594 -46.234375 44.410156 -52.351562 L 1.765625 -52.351562 C 5.351562 -36.292969 5.351562 -16.058594 1.765625 0 Z M 1.765625 0 "/></g></g></g><g fill="#dee2e6" fill-opacity="1"><g transform="translate(113.008725, 312.401082)"><g><path d="M 3.410156 -3.824219 C 4.527344 -0.707031 7.585938 1.175781 10.882812 1.175781 C 16.117188 1.175781 22.941406 -0.292969 25.527344 -10.234375 C 25.058594 -7.117188 24.410156 -3.765625 23.46875 0 L 38.9375 0 C 35.410156 -14.410156 35.410156 -22.117188 38.9375 -36.527344 L 23.46875 -36.527344 C 27.644531 -11.234375 21.117188 -2.117188 16.527344 -2.117188 C 14.644531 -2.117188 13.058594 -3.648438 12.707031 -6.175781 C 11.46875 -14 18.46875 -28.175781 15.941406 -36.527344 L 0.46875 -36.527344 C 8.765625 -21 0.292969 -12.46875 3.410156 -3.824219 Z M 3.410156 -3.824219 "/></g></g></g><g fill="#dee2e6" fill-opacity="1"><g transform="translate(153.529631, 312.401082)"><g><path d="M 17.117188 0 C 16 -7.175781 16.058594 -13.527344 16.941406 -18.292969 C 20.824219 -11.058594 23.941406 -3.707031 24.46875 0 L 39.9375 0 C 35.175781 -4.527344 29 -17.882812 26.703125 -23.644531 C 24.175781 -23 21.410156 -22.46875 17.882812 -22.292969 C 19.527344 -27.46875 22.058594 -30.644531 24.351562 -31.761719 C 24.703125 -31.941406 25 -32 25.234375 -32 C 25.941406 -32 25.882812 -31.175781 25.410156 -29.941406 C 24.351562 -27.234375 26.703125 -24.882812 30.941406 -25.351562 C 42 -26.585938 42.878906 -38.9375 31.761719 -37.703125 C 30.46875 -37.585938 29.292969 -37.292969 28.292969 -36.878906 C 22.585938 -34.761719 16.351562 -28.410156 14.765625 -16.644531 C 13.941406 -29 14.707031 -42.703125 17.117188 -52.351562 L 1.648438 -52.351562 C 5.117188 -37.9375 5.117188 -14.410156 1.648438 0 Z M 17.117188 0 "/></g></g></g><g fill="#dee2e6" fill-opacity="1"><g transform="translate(192.815502, 312.401082)"><g><path d="M 20.175781 -5.292969 C 20.058594 -3.527344 20.175781 -1.824219 20.703125 0 L 36.175781 0 C 31.058594 -9.527344 32.234375 -15.882812 33.117188 -21.644531 C 34.820312 -32.761719 27.585938 -37.820312 19.585938 -37.820312 C 14.941406 -37.820312 10 -36.117188 6.410156 -32.941406 C 2.589844 -29.644531 5.058594 -25.117188 10.410156 -25.703125 C 13.292969 -26.058594 16.824219 -27.527344 17.292969 -33.410156 C 17.410156 -35.117188 18.410156 -35.941406 19.644531 -35.941406 C 21.351562 -35.941406 23.527344 -34.292969 24.410156 -31.351562 C 25.46875 -27.761719 24.703125 -24.46875 23.644531 -22.292969 C 21.351562 -24.117188 18.527344 -24.941406 15.644531 -24.941406 C 8.527344 -24.941406 1 -19.882812 -0.117188 -12.058594 C -1.410156 -3.234375 4.058594 1.234375 9.824219 1.234375 C 13.824219 1.234375 18 -0.941406 20.175781 -5.292969 Z M 11.882812 -13.707031 C 13.234375 -19.175781 16.707031 -22.234375 19.234375 -22.234375 C 20.824219 -22.234375 22.058594 -21 22.058594 -18.292969 C 21.058594 -7.882812 17.644531 -3.648438 14.941406 -3.648438 C 12.292969 -3.648438 10.351562 -7.585938 11.882812 -13.707031 Z M 11.882812 -13.707031 "/></g></g></g><g fill="#dee2e6" fill-opacity="1"><g transform="translate(230.042981, 312.401082)"><g><path d="M 1.648438 -36.527344 C 5.117188 -22.117188 5.117188 -14.410156 1.648438 0 L 17.117188 0 C 14.585938 -21.058594 20.527344 -33.175781 23.824219 -33.175781 C 24.761719 -33.175781 25.46875 -32.234375 25.761719 -30.351562 C 26.941406 -22.527344 20 -8.351562 22.527344 0 L 35.761719 0 C 33.234375 -21.117188 39.175781 -33.175781 42.46875 -33.175781 C 43.410156 -33.175781 44.117188 -32.234375 44.410156 -30.351562 C 45.644531 -22.527344 38.703125 -8.351562 41.175781 0 L 56.703125 0 C 48.410156 -15.527344 56.820312 -24.058594 53.703125 -32.703125 C 52.527344 -36 50.117188 -37.703125 47.410156 -37.703125 C 43.292969 -37.703125 38.46875 -34 35.703125 -26.234375 C 35.878906 -28.46875 35.761719 -30.585938 35 -32.703125 C 33.820312 -36 31.410156 -37.703125 28.644531 -37.703125 C 22.644531 -37.703125 14.882812 -29.527344 14.824219 -12.058594 C 13.941406 -19.941406 14.707031 -26.644531 17.117188 -36.527344 Z M 1.648438 -36.527344 "/></g></g></g><g fill="#dee2e6" fill-opacity="1"><g transform="translate(287.736753, 312.401082)"><g><path d="M 2 0 L 17.46875 0 C 13.941406 -14.410156 13.941406 -22.117188 17.46875 -36.527344 L 2 -36.527344 C 5.46875 -22.117188 5.46875 -14.410156 2 0 Z M 9.941406 -42.175781 C 20.941406 -43.410156 21 -55.761719 9.941406 -54.527344 C -1.175781 -53.234375 -1.117188 -40.9375 9.941406 -42.175781 Z M 9.941406 -42.175781 "/></g></g></g><g fill="#dee2e6" fill-opacity="1"><g transform="translate(144.305798, 338.773514)"><g><path d="M 7.359375 -2.140625 L 2.578125 -2.140625 L 1.671875 0 L 0.015625 0 L 4.1875 -9.46875 L 5.828125 -9.46875 L 9.96875 0 L 8.265625 0 Z M 6.75 -3.5625 L 4.96875 -7.765625 L 3.1875 -3.5625 Z M 6.75 -3.5625 "/></g></g></g><g fill="#dee2e6" fill-opacity="1"><g transform="translate(164.421226, 338.773514)"><g><path d="M 9.296875 -9.46875 L 9.296875 -3.921875 C 9.296875 -2.679688 8.929688 -1.707031 8.203125 -1 C 7.472656 -0.289062 6.46875 0.0625 5.1875 0.0625 C 3.90625 0.0625 2.894531 -0.289062 2.15625 -1 C 1.425781 -1.707031 1.0625 -2.679688 1.0625 -3.921875 L 1.0625 -9.46875 L 2.65625 -9.46875 L 2.65625 -3.921875 C 2.65625 -3.128906 2.878906 -2.503906 3.328125 -2.046875 C 3.785156 -1.585938 4.410156 -1.359375 5.203125 -1.359375 C 5.972656 -1.359375 6.582031 -1.582031 7.03125 -2.03125 C 7.476562 -2.488281 7.703125 -3.117188 7.703125 -3.921875 L 7.703125 -9.46875 Z M 9.296875 -9.46875 "/></g></g></g><g fill="#dee2e6" fill-opacity="1"><g transform="translate(184.888571, 338.773514)"><g><path d="M 1.25 -9.46875 L 5.125 -9.46875 C 6.539062 -9.46875 7.710938 -9.019531 8.640625 -8.125 C 9.566406 -7.238281 10.03125 -6.109375 10.03125 -4.734375 C 10.03125 -3.359375 9.5625 -2.222656 8.625 -1.328125 C 7.695312 -0.441406 6.519531 0 5.09375 0 L 1.25 0 Z M 2.84375 -8.03125 L 2.84375 -1.4375 L 5.171875 -1.4375 C 6.097656 -1.4375 6.867188 -1.742188 7.484375 -2.359375 C 8.109375 -2.972656 8.421875 -3.757812 8.421875 -4.71875 C 8.421875 -5.675781 8.101562 -6.46875 7.46875 -7.09375 C 6.832031 -7.71875 6.039062 -8.03125 5.09375 -8.03125 Z M 2.84375 -8.03125 "/></g></g></g><g fill="#dee2e6" fill-opacity="1"><g transform="translate(205.504804, 338.773514)"><g><path d="M 2.84375 0 L 1.25 0 L 1.25 -9.46875 L 2.84375 -9.46875 Z M 2.84375 0 "/></g></g></g><g fill="#dee2e6" fill-opacity="1"><g transform="translate(219.718914, 338.773514)"><g><path d="M 1.90625 -8.140625 C 2.875 -9.054688 4.066406 -9.515625 5.484375 -9.515625 C 6.898438 -9.515625 8.085938 -9.054688 9.046875 -8.140625 C 10.015625 -7.222656 10.5 -6.085938 10.5 -4.734375 C 10.5 -3.378906 10.015625 -2.238281 9.046875 -1.3125 C 8.085938 -0.394531 6.898438 0.0625 5.484375 0.0625 C 4.066406 0.0625 2.875 -0.394531 1.90625 -1.3125 C 0.9375 -2.238281 0.453125 -3.378906 0.453125 -4.734375 C 0.453125 -6.085938 0.9375 -7.222656 1.90625 -8.140625 Z M 5.5 -8.078125 C 4.5625 -8.078125 3.753906 -7.753906 3.078125 -7.109375 C 2.410156 -6.460938 2.078125 -5.671875 2.078125 -4.734375 C 2.078125 -3.796875 2.410156 -3 3.078125 -2.34375 C 3.753906 -1.6875 4.554688 -1.359375 5.484375 -1.359375 C 6.421875 -1.359375 7.21875 -1.6875 7.875 -2.34375 C 8.53125 -3 8.859375 -3.796875 8.859375 -4.734375 C 8.859375 -5.671875 8.53125 -6.460938 7.875 -7.109375 C 7.21875 -7.753906 6.425781 -8.078125 5.5 -8.078125 Z M 5.5 -8.078125 "/></g></g></g></svg>