<svg width="316" height="107" viewBox="0 0 316 107" fill="none" xmlns="http://www.w3.org/2000/svg">
<g clip-path="url(#clip0_943_4)">
<path d="M0.261719 73.1718H57.1204C55.3191 65.0158 54.4537 58.5825 53.9071 49.1718C49.4337 63.9158 36.2564 70.8172 21.9857 70.8172C19.9431 60.6252 18.9284 49.4838 18.9284 40.6251C18.9284 39.9158 19.3964 39.4478 20.1831 39.4478H25.9857C33.0431 39.4478 38.4537 41.7238 44.4951 50.3491C43.7884 40.8585 43.7884 35.6038 44.4951 26.1918C38.2977 34.9785 33.1217 37.0932 25.9857 37.0932H20.1831C19.4751 37.0932 19.0057 36.5465 19.0057 35.8385C19.2404 23.6038 20.2617 14.2705 21.9857 5.72382C36.3337 5.72382 49.4337 12.5465 53.9071 27.3691C54.4537 17.9585 55.3191 11.5251 57.1204 3.36914H0.261719C5.04305 24.7811 5.04305 51.7598 0.261719 73.1718ZM63.2257 68.0731C64.7151 72.2291 68.7937 74.7398 73.1897 74.7398C80.1684 74.7398 89.267 72.7798 92.715 59.5265C92.0203 64.1165 91.1042 68.6703 89.9697 73.1718H110.596C105.892 53.9585 105.892 43.6825 110.596 24.4678H89.9697C95.5377 58.1918 86.8351 70.3478 80.7164 70.3478C78.2044 70.3478 76.0897 68.3078 75.6217 64.9372C73.9697 54.5052 83.3031 35.6038 79.9337 24.4678H59.3031C70.3657 45.1718 59.0697 56.5478 63.2257 68.0731ZM135.53 73.1718C134.04 63.6038 134.118 55.1345 135.295 48.7811C140.472 58.4265 144.628 68.2291 145.331 73.1718H165.958C159.607 67.1345 151.374 49.3278 148.311 41.6451C144.94 42.5051 141.254 43.2131 136.551 43.4478C138.743 36.5465 142.118 32.3118 145.175 30.8225C145.644 30.5825 146.04 30.5051 146.352 30.5051C147.295 30.5051 147.216 31.6038 146.587 33.2491C145.175 36.8585 148.311 39.9945 153.962 39.3691C168.707 37.7238 169.879 21.2545 155.055 22.9011C153.331 23.0571 151.764 23.4478 150.431 23.9998C142.822 26.8225 134.508 35.2918 132.394 50.9785C131.295 34.5051 132.316 16.2345 135.53 3.36914H114.904C119.53 22.5878 119.53 53.9585 114.904 73.1718H135.53Z" fill="#545454"/>
<path d="M191.988 66.1156C191.832 68.4689 191.988 70.7409 192.692 73.1729H213.322C206.499 60.4689 208.067 51.9956 209.244 44.3129C211.515 29.4902 201.868 22.7449 191.202 22.7449C185.01 22.7449 178.422 25.0169 173.635 29.2516C168.542 33.6462 171.832 39.6836 178.968 38.9022C182.811 38.4276 187.52 36.4689 188.144 28.6262C188.302 26.3502 189.635 25.2502 191.28 25.2502C193.556 25.2502 196.458 27.4489 197.635 31.3702C199.046 36.1569 198.026 40.5476 196.614 43.4489C193.556 41.0169 189.791 39.9169 185.947 39.9169C176.458 39.9169 166.422 46.6622 164.931 57.0942C163.207 68.8596 170.499 74.8182 178.187 74.8182C183.52 74.8182 189.088 71.9169 191.988 66.1156ZM180.931 54.8969C182.734 47.6049 187.364 43.5262 190.734 43.5262C192.854 43.5262 194.499 45.1729 194.499 48.7822C193.166 62.6622 188.614 68.3076 185.01 68.3076C181.478 68.3076 178.89 63.0582 180.931 54.8969ZM216.922 24.4689C221.548 43.6822 221.548 53.9596 216.922 73.1729H237.548C234.172 45.0942 242.095 28.9382 246.49 28.9382C247.74 28.9382 248.683 30.1929 249.074 32.7036C250.647 43.1356 241.391 62.0369 244.76 73.1729H262.407C259.036 45.0169 266.959 28.9382 271.35 28.9382C272.604 28.9382 273.547 30.1929 273.938 32.7036C275.584 43.1356 266.328 62.0369 269.626 73.1729H290.328C279.271 52.4689 290.484 41.0942 286.328 29.5689C284.76 25.1729 281.547 22.9022 277.938 22.9022C272.448 22.9022 266.016 27.8396 262.328 38.1929C262.563 35.2142 262.407 32.3916 261.391 29.5689C259.818 25.1729 256.604 22.9022 252.918 22.9022C244.918 22.9022 234.568 33.8022 234.491 57.0942C233.312 46.5836 234.334 37.6462 237.547 24.4689H216.922ZM294.316 73.1729H314.942C310.238 53.9596 310.238 43.6836 314.942 24.4689H294.315C298.942 43.6822 298.942 53.9596 294.315 73.1729H294.316ZM304.904 16.9382C319.571 15.2929 319.65 -1.17644 304.904 0.468892C290.082 2.19289 290.16 18.5889 304.904 16.9382ZM113.759 103.824H107.863L106.738 106.469H104.696L109.863 94.7822H111.883L116.987 106.469H114.883L113.759 103.824ZM113.008 102.073L110.8 96.8862L108.592 102.073H113.008ZM140.987 94.7822V101.616C140.987 103.146 140.534 104.354 139.631 105.24C138.724 106.116 137.486 106.553 135.903 106.553C134.319 106.553 133.075 106.116 132.174 105.24C131.267 104.354 130.819 103.146 130.819 101.616V94.7822H132.778V101.616C132.778 102.605 133.054 103.381 133.611 103.949C134.179 104.506 134.95 104.782 135.923 104.782C136.882 104.782 137.631 104.506 138.174 103.949C138.726 103.397 139.007 102.616 139.007 101.616V94.7822H140.987ZM156.314 94.7822H161.106C162.856 94.7822 164.299 95.3342 165.439 96.4276C166.575 97.5262 167.147 98.9222 167.147 100.614C167.147 102.313 166.57 103.714 165.419 104.824C164.278 105.922 162.824 106.469 161.064 106.469H156.314V94.7822ZM158.274 96.5529V104.7H161.147C162.299 104.7 163.256 104.318 164.023 103.553C164.783 102.793 165.168 101.818 165.168 100.636C165.168 99.4582 164.772 98.4849 163.982 97.7196C163.199 96.9436 162.231 96.5529 161.064 96.5529H158.274ZM183.722 106.469H181.764V94.7822H183.722V106.469ZM200.126 96.4276C201.318 95.2916 202.792 94.7196 204.542 94.7196C206.292 94.7196 207.755 95.2929 208.938 96.4276C210.131 97.5529 210.73 98.9582 210.73 100.636C210.73 102.302 210.13 103.709 208.938 104.844C207.755 105.985 206.292 106.553 204.542 106.553C202.792 106.553 201.318 105.985 200.126 104.844C198.927 103.709 198.334 102.302 198.334 100.636C198.334 98.9582 198.927 97.5529 200.126 96.4276ZM204.563 96.4902C203.396 96.4902 202.402 96.8969 201.583 97.6982C200.76 98.4902 200.355 99.4689 200.355 100.636C200.355 101.792 200.76 102.772 201.583 103.573C202.416 104.381 203.402 104.782 204.543 104.782C205.694 104.782 206.672 104.381 207.479 103.573C207.876 103.195 208.19 102.739 208.402 102.233C208.613 101.728 208.718 101.184 208.708 100.636C208.708 99.4689 208.298 98.4889 207.479 97.6982C207.1 97.3094 206.647 97.0018 206.145 96.7941C205.644 96.5864 205.106 96.483 204.563 96.4902Z" fill="#545454"/>
</g>
<defs>
<clipPath id="clip0_943_4">
<rect width="316" height="107" fill="white"/>
</clipPath>
</defs>
</svg>
